<?xml version="1.0" encoding="UTF-8" standalone="no"?>
<svg
   xmlns:dc="http://purl.org/dc/elements/1.1/"
   xmlns:cc="http://creativecommons.org/ns#"
   xmlns:rdf="http://www.w3.org/1999/02/22-rdf-syntax-ns#"
   xmlns:svg="http://www.w3.org/2000/svg"
   xmlns="http://www.w3.org/2000/svg"
   version="1.1"
   id="svg2"
   width="300"
   height="300"
   viewBox="0 0 300 300">
  <metadata
     id="metadata8">
    <rdf:RDF>
      <cc:Work
         rdf:about="">
        <dc:format>image/svg+xml</dc:format>
        <dc:type
           rdf:resource="http://purl.org/dc/dcmitype/StillImage" />
        <dc:title></dc:title>
      </cc:Work>
    </rdf:RDF>
  </metadata>
  <defs
     id="defs6" />
  <g
     id="g10"
     style="display:inline;mix-blend-mode:normal">
    <path
       style="fill:#36a4a4;stroke-width:1.33333"
       d="m 16.538077,287.45976 v -13.54182 h 16.54938 c 22.4335,0 34.24798,-2.46594 50.98812,-10.64234 l 13.64233,-6.66335 9.743423,5.1728 c 17.89629,9.50117 35.92258,12.99445 55.07676,10.67323 13.50882,-1.6371 21.48285,-4.16388 33.83014,-10.72 l 9.83015,-5.21959 13.50319,6.70484 c 16.56506,8.22517 28.32981,10.69441 50.95381,10.69441 h 16.54937 v 13.54182 13.5418 l -21,-0.87964 c -23.29569,-0.97583 -37.71149,-3.7795 -51.44033,-10.00446 -6.41488,-2.90864 -9.09189,-3.52756 -10.89452,-2.51874 -17.18843,9.61912 -49.61611,14.2307 -72.08693,10.25158 -8.69855,-1.54033 -26.081,-7.0176 -31.11669,-9.80497 -2.841773,-1.57299 -4.168073,-1.33751 -11.698823,2.07711 -13.71787,6.21997 -28.13892,9.02388 -51.42938,9.99948 l -21,0.87964 z m 12.94404,-87.92714 c -7.18078,-25.45474 -13.03078,-48.17801 -13,-50.49616 0.0769,-5.79212 5.82745,-10.34192 17.44378,-13.80141 l 9.27885,-2.76336 0.007,-32.94354 c 0.005,-20.016011 0.58797,-35.034692 1.48683,-38.272473 1.93131,-6.956795 10.88667,-15.912159 17.84347,-17.84347 2.93091,-0.813665 15.07893,-1.482738 26.9956,-1.486828 l 21.666663,-0.0074 V 21.251277 0.58461041 h 40.66671 40.66667 V 21.145383 41.706155 l 24.33333,0.439228 c 23.5428,0.424958 24.52872,0.554102 30.34767,3.975151 3.70498,2.178223 7.28873,5.761975 9.33333,9.333333 3.27548,5.7214 3.32441,6.264602 3.73163,41.431232 l 0.41264,35.633821 9.4805,2.82342 c 11.15963,3.32348 17.02756,8.28002 17.02756,14.38286 0,2.2068 -2.00806,11.10296 -4.46237,19.76922 -2.45431,8.66627 -8.30431,29.38306 -13,46.03731 l -8.53763,30.28044 -5.33333,-0.72987 c -16.52203,-2.26108 -29.41904,-8.39725 -41.86196,-19.9172 l -7.70649,-7.13486 -5.21578,5.35749 c -18.32937,18.82743 -45.88718,26.30488 -68.49821,18.58611 -11.38593,-3.88686 -18.76032,-8.33511 -28.00091,-16.89027 l -7.618453,-7.05333 -5.21577,5.36958 c -11.25521,11.58714 -27.16271,19.45271 -43.88243,21.69795 l -5.33334,0.7162 z m 84.389303,-90.4049 38,-12.464939 40.52088,13.294249 c 22.28648,7.31183 40.73648,13.29425 41,13.29425 0.26352,0 0.47912,-12.3 0.47912,-27.333337 V 68.58461 h -82 -82.000003 v 27.423184 27.423186 l 3,-0.91916 c 1.65,-0.50554 20.1,-6.52839 41.000003,-13.3841 z"
       id="path1802" />
  </g>
</svg>
