<svg
   version="1.1"
   id="svg99"
   width="682.66669"
   height="490.66666"
   viewBox="0 0 682.66669 490.66666"
   xmlns="http://www.w3.org/2000/svg"
   xmlns:svg="http://www.w3.org/2000/svg">
    <path
       fill="param(fill)" fill-opacity="param(fill-opacity)" stroke-width="param(outline-width)" d="M 108.79771,479.24483 C 98.312255,477.50123 80.446782,471.05057 70.665618,465.47653 41.287583,448.73473 20.435381,422.4173 10.665564,389.75082 6.0593723,374.3495 5.3427649,350.58851 8.9558997,333.06246 11.194984,322.20145 28.811894,267.71243 87.153383,91.198025 93.697531,71.398454 100.53726,52.242424 102.35278,48.629068 c 5.96329,-11.868511 30.00308,-29.173522 48.84395,-35.160243 7.14681,-2.270917 11.0848,-2.666788 26.39942,-2.653836 16.63358,0.01407 18.72699,0.271113 27.58393,3.386955 17.14123,6.030234 32.85094,14.923175 52.33332,29.624793 l 5.51886,4.164594 1.49766,22.203334 c 0.82371,12.211833 2.05126,22.878319 2.72788,23.703302 0.95967,1.170058 17.28822,1.499967 74.23952,1.499967 68.3099,0 73.08069,-0.135167 74.11897,-2.099954 0.61034,-1.154975 1.76736,-11.819744 2.57115,-23.699487 0.80378,-11.879743 1.53839,-21.659081 1.63244,-21.731864 36.16528,-27.984141 58.75852,-37.672522 87.76913,-37.636949 20.30373,0.0249 39.45362,7.361729 57.89672,22.181777 10.9541,8.802223 14.2053,13.479902 19.55224,28.130858 7.43358,20.368474 85.44482,257.895195 87.90488,267.650575 2.12279,8.41799 2.56672,13.65856 2.54123,29.99935 -0.0283,18.16439 -0.30453,20.69095 -3.34448,30.59274 -6.89249,22.4503 -16.60354,39.21815 -31.86306,55.01724 -22.12407,22.90634 -49.50266,35.01163 -82.28862,36.38347 -18.73678,0.78398 -34.58083,-1.44719 -48.37464,-6.81218 -37.71786,-14.67004 -64.80864,-44.13089 -76.94989,-83.68195 -4.17048,-13.58562 -4.47637,-13.83308 -12.82594,-10.37577 -2.55553,1.05818 -16.03478,7.26804 -29.95387,13.7997 l -25.30743,11.87574 h -23.32191 -23.32192 l -26.36903,-12.42535 c -29.45133,-13.87777 -34.30191,-15.84024 -36.7909,-14.88512 -0.95399,0.36607 -2.90732,5.0814 -4.37212,10.55422 -8.95609,33.46228 -34.17905,64.21243 -65.71085,80.11028 -9.66593,4.87342 -24.30843,9.5151 -34.69267,10.9976 -10.05704,1.43579 -32.29332,1.38287 -41.19904,-0.098 z m 35.83063,-26.32388 c 19.93509,-2.4883 36.83595,-10.72439 52.46581,-25.56753 14.49541,-13.76582 24.93548,-31.42881 28.48724,-48.19606 2.31844,-10.94496 2.29317,-31.88956 -0.0524,-43.51522 -2.37085,-11.75045 -11.58717,-30.81361 -19.68584,-40.71842 -11.57064,-14.1511 -28.88831,-25.66809 -47.44649,-31.55398 -12.92102,-4.09799 -37.5035,-4.7313 -51.01595,-1.31429 -18.370031,4.6454 -33.618437,13.499 -47.016305,27.29886 -8.858536,9.12431 -10.661164,11.51921 -15.706715,20.86721 -16.02505,29.68994 -15.321824,67.09586 1.812959,96.43466 6.464028,11.06795 23.000073,27.68491 33.970691,34.13695 19.265324,11.33028 39.67766,15.1871 64.18709,12.12782 z m 435.1327,-2.46845 c 27.57898,-8.50779 48.74111,-26.86856 61.04966,-52.96814 8.31007,-17.62103 10.79429,-37.03816 7.30042,-57.06137 -3.93089,-22.52775 -13.0215,-39.30231 -29.63442,-54.68333 -14.46006,-13.3878 -30.53674,-21.57122 -48.66416,-24.77127 -12.28063,-2.16791 -34.66438,-0.96458 -45.4239,2.44193 -31.77123,10.05891 -55.80397,33.6276 -65.44631,64.18259 -3.7331,11.82951 -4.68859,38.57401 -1.83619,51.395 5.9738,26.8511 27.0959,53.06437 52.88282,65.6294 14.60045,7.11429 20.14192,8.2041 42.17267,8.29391 16.47897,0.0672 20.60213,-0.30015 27.59941,-2.45872 z M 406.61217,230.97472 c 0.34075,-0.34114 1.46189,-11.95089 2.49141,-25.79944 2.52802,-34.00566 2.81401,-39.32808 2.20731,-41.07883 -0.40776,-1.17671 -15.48253,-1.49997 -69.94747,-1.49997 -40.66458,0 -69.70865,0.45465 -70.1059,1.0974 -0.37303,0.60357 0.13724,12.88831 1.13394,27.29941 2.54527,36.80196 2.93244,39.78221 5.2508,40.41848 2.72892,0.74894 128.21,0.32372 128.96991,-0.43705 z"
       id="path1193" />
</svg>
