<?xml version="1.0" encoding="UTF-8" standalone="no"?>
<!-- Created with Inkscape (http://www.inkscape.org/) -->

<svg
   version="1.1"
   id="svg925"
   width="1365.3333"
   height="1365.3333"
   viewBox="0 0 1365.3333 1365.3333"
   xmlns:xlink="http://www.w3.org/1999/xlink"
   xmlns="http://www.w3.org/2000/svg"
   xmlns:svg="http://www.w3.org/2000/svg">
    <path
       fill="param(fill)" stroke-width="param(outline-width)" d="M 1081.3333,114.66666 V 116 h 12 v 1.33333 c -10.6347,2.53187 -26.0747,-2.11213 -30.6667,10.66667 -12.3906,-1.6056 -32.0773,11.65733 -37.3333,22.66666 H 1032 V 152 c -10.38,3.01066 -25.5787,10.048 -30.6667,20 H 1008 v 1.33333 c -29.09469,6.91067 -38.97069,36.112 -66.66669,44.59066 -54.27333,16.61467 -110.68,13.11067 -162.66666,38.916 -8.90934,4.42267 -20.33734,6.43467 -28,12.79334 -25.824,21.42666 -50.436,43.196 -77.33333,63.52666 -10.82934,8.18533 -28.42,13.444 -36.48267,24.22667 -4.53867,6.07066 -13.28533,20.87333 -14.87333,27.96666 -1.34534,6.00934 1.24933,14.14667 -2.01467,19.54134 -2.58133,4.26666 -8.16266,6.18266 -11.45733,9.91066 -6.09733,6.90134 -7.57333,14.71467 -17.83867,15.86134 l 4,6.66666 14.66667,-4 c -4.83333,9.53867 -16.62933,16.11067 -23.92667,24 -4.41333,4.77067 -5.652,11.03467 -9.81066,15.75467 -5.76134,6.536 -14.584,8.74666 -12.92934,18.912 -7.79866,2.68266 -10.148,8.872 -13.33333,16 l 6.66667,2.66666 c -6.052,4.88534 -13.064,7.652 -18.54667,13.35334 -7.25733,7.54666 -14.97467,19.932 -24.14,24.94133 -12.524,6.84533 -31.43733,7.236 -45.31333,10.884 -39.31467,10.33733 -79.23333,17.58933 -118.66667,27.32 -54.20799,13.37733 -105.82799,32.584 -161.33332,40.45333 -30.644,4.34533 -65.07,-5.36667 -94.666669,1.89867 -6.564133,1.612 -21.514133,7.276 -26.146133,12.12 -7.014799,7.33733 -8.690799,18.61866 -16.867199,25.49733 C 37.812532,677.65732 15.0836,681.81198 0,687.99998 l 6.6666665,5.33334 -1.3333333,5.33333 c 21.0437328,5.916 43.8783988,15.24267 65.3333318,18.488 17.173466,2.59733 36.690395,-0.60533 53.333335,3.65867 28.06666,7.18933 54.50933,22.708 82.66666,30.79866 17.08933,4.91067 33.87067,10.11867 50.66667,15.92933 3.72,1.28667 14.22933,2.61067 15.164,7.30934 0.596,2.98933 -3.27067,6.376 -4.09867,9.20133 -4.56933,15.588 -16.68933,28.90533 -23.69333,43.948 -7.212,15.49333 -5.17467,33.184 -6.27467,49.33333 -0.79733,11.69467 -5.736,24.00267 -3.764,36 h 5.33333 l -2.66666,5.33333 5.33333,1.33334 v 2.66666 l -5.33333,2.66667 c 5.89066,13.86533 -3.80134,17.2 -5.19467,30.66667 -1.24,11.99066 -0.34133,28.91466 -4.988,40 -9.14133,21.80802 -28.41866,46.59602 -44.604,64.00002 -10.344,11.1253 -23.06133,20.888 -30.104,34.6666 -2.87733,5.6294 -0.65333,11.8854 -3.53866,17.2134 -3.58267,6.6146 -11.66,9.2773 -16.37827,14.9106 -6.77373,8.0867 -6.2172,15.572 -15.1924,22.8907 -4.60987,3.7587 -18.127332,12.744 -15.0556,20.348 1.87387,4.64 9.7528,-0.8133 12.38893,-2.0293 2.17627,16.2813 -23.955329,33.3426 -2.66666,38.6666 -0.37,3.972 1.17413,8.128 -0.18627,12 -2.59907,7.3987 -9.20973,13.0974 -9.964,21.3094 -0.61773,6.7266 7.4896,7.74 6.0144,14.7106 -1.9928,9.4187 -18.548532,30.0774 -1.19747,30.6467 l -4.80346,18.2493 -9.863202,9.7507 c 45.328002,0 92.637332,-16.9547 133.333332,-35.588 64.79866,-29.6707 121.25599,-68.9413 172.37999,-118.508 16.49334,-15.9907 40.43067,-25.324 54.91467,-43.2893 17.40667,-21.5934 22.616,-51.8014 38.33333,-74.6147 9.004,-13.0707 23.31733,-21.7933 33.992,-33.3853 15.332,-16.65336 22.516,-37.04269 34.33733,-55.94669 4.424,-7.076 12.636,-11.20533 16.28534,-18.66933 6.356,-12.996 3.588,-34.82267 6.372,-49.332 3.776,-19.68667 14.68666,-37.77467 18.052,-57.33333 92.04266,0 187.66666,1.17466 278.66666,-15.232 51.07466,-9.20934 100.06266,-25.09334 150.66665,-35.88667 28.1493,-6.004 57.1027,-7.79867 85.3333,-13.48 23.508,-4.73067 45.2467,-12.99733 69.3334,-15.17333 43.7533,-3.95333 93.7106,22.864 128,46.81066 12.0173,8.392 32.3466,8.344 33.3333,26.29467 22.3333,-10.41733 25.6267,-44.036 11.44,-62.66133 -17.0933,-22.43333 -51.8467,-26.73333 -72.7733,-45.56667 -20.0667,-18.05866 -44.104,-39.69466 -60.4214,-61.10533 -12.5546,-16.472 -17.7266,-34.608 -35.5786,-47.42933 -55.58,-39.91867 -130.7507,-40.436 -194.66669,-58.676 -16.22667,-4.62933 -32.22667,-10.32667 -48,-16.30533 -5.09733,-1.932 -14.09333,-3.50534 -15.524,-9.72934 -1.59333,-6.93733 1.81067,-16.928 2.972,-23.86 3.424,-20.41599 7.34533,-40.46666 14.296,-59.99999 7.90533,-22.216 15.31333,-44.82134 29.56,-64 35.94669,-48.388 99.67999,-79.29467 154.02929,-102.10133 14.7427,-6.18534 29.8627,-12.23334 45.3334,-16.35867 7.9973,-2.132 17.9506,-1.91733 25.1933,-6.12933 5.316,-3.092 6.6133,-9.412 11.0907,-13.33467 5.64,-4.94 13.708,-5.68933 19.2813,-10.78533 6.704,-6.13067 9.6587,-15.64 16.5733,-21.55333 10.428,-8.91734 27.4987,-8.26934 36.2054,-20.64934 4.8866,-6.95066 0.084,-16.036 1.6813,-23.75466 2.7613,-13.35334 6.5267,-26.1076 4.2067,-40 -4.552,-27.265602 -39.08,-62.407868 -67.5587,-63.709868 -10.0533,-0.4596 -22.296,12.028666 -32.0067,15.1904 -30.3666,9.887733 -57.2546,24.687466 -85.3533,38.948528 -7.556,3.8352 -16.2027,3.71574 -23.98,8.2376 z"
       id="path1030" />
</svg>
